<svg width="322" height="74" viewBox="0 0 322 74" fill="none" xmlns="http://www.w3.org/2000/svg">
<path d="M233.5 0.5V1V0.5ZM321.638 17.9806C321.904 17.9043 322.057 17.6273 321.981 17.3619L320.738 13.0369C320.661 12.7715 320.385 12.6182 320.119 12.6945C319.854 12.7707 319.7 13.0477 319.777 13.3131L320.881 17.1575L317.037 18.2622C316.772 18.3385 316.618 18.6155 316.694 18.8809C316.771 19.1463 317.048 19.2996 317.313 19.2233L321.638 17.9806ZM1.28198 73.4129C1.54404 73.2339 1.80883 73.0543 2.07631 72.8739L1.51731 72.0448C1.2482 72.2262 0.981757 72.407 0.718019 72.5871L1.28198 73.4129ZM3.71347 71.784C4.26744 71.4197 4.83193 71.0528 5.40677 70.6835L4.86629 69.8422C4.28853 70.2133 3.72104 70.5821 3.16399 70.9485L3.71347 71.784ZM7.04649 69.6413C7.60201 69.2919 8.1664 68.9404 8.73953 68.5871L8.21475 67.7359C7.63911 68.0907 7.07216 68.4438 6.51403 68.7949L7.04649 69.6413ZM10.4363 67.551C10.9899 67.2161 11.5511 66.8796 12.1197 66.5416L11.6087 65.682C11.0379 66.0213 10.4745 66.3591 9.91866 66.6954L10.4363 67.551ZM13.8477 65.5233C14.4098 65.1948 14.9787 64.8651 15.5543 64.5341L15.0558 63.6672C14.4783 63.9993 13.9073 64.3302 13.3432 64.6599L13.8477 65.5233ZM17.2663 63.5572C17.8433 63.2304 18.4266 62.9025 19.0161 62.5737L18.5289 61.7004C17.9376 62.0303 17.3524 62.3592 16.7735 62.687L17.2663 63.5572ZM20.7398 61.6188C21.3113 61.3045 21.8883 60.9892 22.4707 60.6732L21.9938 59.7943C21.4097 60.1112 20.831 60.4273 20.2579 60.7426L20.7398 61.6188ZM24.234 59.7228C24.8113 59.4138 25.3935 59.1041 25.9808 58.7937L25.5135 57.9096C24.9247 58.2208 24.3408 58.5313 23.762 58.8412L24.234 59.7228ZM27.7242 57.8779C28.3101 57.5721 28.9007 57.2657 29.4959 56.9588L29.0376 56.07C28.4409 56.3776 27.8489 56.6848 27.2615 56.9914L27.7242 57.8779ZM31.2699 56.0495C31.8498 55.7541 32.4339 55.4582 33.022 55.162L32.5722 54.2688C31.9827 54.5658 31.3972 54.8623 30.816 55.1585L31.2699 56.0495ZM34.7988 54.2722C35.3951 53.9753 35.9955 53.678 36.5999 53.3805L36.1582 52.4833C35.5525 52.7815 34.9508 53.0794 34.3531 53.377L34.7988 54.2722ZM38.3609 52.5182C38.9506 52.231 39.544 51.9436 40.1409 51.6561L39.7069 50.7551C39.1087 51.0433 38.5141 51.3314 37.9231 51.6192L38.3609 52.5182ZM41.9424 50.7929C42.5377 50.5092 43.1364 50.2253 43.7384 49.9414L43.3119 49.0369C42.7086 49.3214 42.1087 49.6058 41.5121 49.8901L41.9424 50.7929ZM45.5208 49.1052C46.1181 48.8264 46.7185 48.5475 47.3221 48.2687L46.9027 47.3609C46.298 47.6403 45.6963 47.9197 45.0978 48.199L45.5208 49.1052ZM49.1421 47.4323C49.7375 47.16 50.3357 46.8879 50.9368 46.6158L50.5244 45.7048C49.9222 45.9774 49.3228 46.2501 48.7263 46.5228L49.1421 47.4323ZM52.7381 45.8045C53.3413 45.5341 53.9473 45.2639 54.556 44.9938L54.1504 44.0797C53.5406 44.3503 52.9335 44.6211 52.3291 44.8919L52.7381 45.8045ZM56.3872 44.1853C56.9853 43.9226 57.5858 43.66 58.1889 43.3977L57.79 42.4807C57.1858 42.7435 56.5842 43.0065 55.985 43.2698L56.3872 44.1853ZM60.0054 42.6113C60.6134 42.3494 61.2238 42.0877 61.8366 41.8263L61.4442 40.9065C60.8303 41.1684 60.2189 41.4305 59.6098 41.6929L60.0054 42.6113ZM63.6727 41.0469C64.2758 40.7921 64.8812 40.5377 65.4888 40.2835L65.1028 39.361C64.4942 39.6156 63.8878 39.8705 63.2836 40.1257L63.6727 41.0469ZM67.3179 39.522C67.9298 39.2685 68.5439 39.0153 69.16 38.7625L68.7805 37.8374C68.1633 38.0906 67.5482 38.3442 66.9352 38.5981L67.3179 39.522ZM71.0039 38.0098C71.6114 37.763 72.2209 37.5165 72.8323 37.2705L72.4591 36.3428C71.8466 36.5892 71.2361 36.8361 70.6275 37.0833L71.0039 38.0098ZM74.6723 36.5338C75.2876 36.2887 75.9047 36.044 76.5237 35.7998L76.1567 34.8696C75.5367 35.1142 74.9185 35.3593 74.3022 35.6049L74.6723 36.5338ZM78.3773 35.0722C78.9887 34.8333 79.6018 34.595 80.2167 34.3571L79.8559 33.4245C79.24 33.6627 78.6259 33.9015 78.0134 34.1407L78.3773 35.0722ZM82.0663 33.6452C82.6845 33.4084 83.3044 33.1722 83.9259 32.9365L83.5713 32.0015C82.9488 32.2376 82.3279 32.4742 81.7086 32.7114L82.0663 33.6452ZM85.7902 32.2332C86.4052 32.0023 87.0217 31.7721 87.6397 31.5424L87.2913 30.605C86.6723 30.8351 86.0548 31.0657 85.4388 31.297L85.7902 32.2332ZM89.4981 30.8553C90.119 30.6269 90.7415 30.3991 91.3653 30.172L91.0232 29.2323C90.3983 29.4598 89.7748 29.688 89.1529 29.9168L89.4981 30.8553ZM93.2407 29.4927C93.859 29.2699 94.4786 29.0478 95.0996 28.8263L94.7637 27.8844C94.1417 28.1062 93.521 28.3287 92.9017 28.5519L93.2407 29.4927ZM96.9664 28.1641C97.5899 27.9441 98.2147 27.7248 98.8408 27.5062L98.5112 26.5621C97.8841 26.781 97.2582 27.0007 96.6336 27.2211L96.9664 28.1641ZM100.723 26.8527C101.346 26.6376 101.97 26.4232 102.595 26.2095L102.272 25.2632C101.645 25.4772 101.02 25.692 100.396 25.9075L100.723 26.8527ZM104.47 25.5724C105.096 25.3609 105.723 25.1501 106.352 24.9401L106.035 23.9917C105.405 24.202 104.777 24.4131 104.15 24.6251L104.47 25.5724ZM108.24 24.3127C108.867 24.1055 109.495 23.899 110.125 23.6934L109.814 22.7429C109.184 22.9488 108.554 23.1556 107.926 23.3632L108.24 24.3127ZM112.008 23.0818C112.636 22.8788 113.266 22.6767 113.897 22.4754L113.593 21.5228C112.961 21.7243 112.33 21.9268 111.7 22.1302L112.008 23.0818ZM115.791 21.8745C116.422 21.6754 117.054 21.4772 117.687 21.28L117.39 20.3253C116.756 20.5228 116.122 20.7213 115.49 20.9208L115.791 21.8745ZM119.579 20.6943C120.21 20.5 120.842 20.3067 121.475 20.1144L121.184 19.1576C120.55 19.3503 119.917 19.5439 119.285 19.7386L119.579 20.6943ZM123.376 19.5403C124.01 19.3499 124.645 19.1606 125.281 18.9722L124.997 18.0134C124.36 18.2021 123.724 18.3918 123.088 18.5825L123.376 19.5403ZM127.182 18.4128C127.816 18.2275 128.451 18.0432 129.086 17.8599L128.809 16.8991C128.172 17.0827 127.536 17.2673 126.901 17.453L127.182 18.4128ZM130.994 17.3134C131.63 17.1323 132.267 16.9522 132.905 16.7733L132.635 15.8105C131.996 15.9897 131.358 16.1701 130.72 16.3515L130.994 17.3134ZM134.816 16.2408C135.453 16.0646 136.091 15.8896 136.728 15.7157L136.465 14.7509C135.826 14.9251 135.188 15.1005 134.55 15.277L134.816 16.2408ZM138.643 15.1975C139.282 15.0259 139.921 14.8555 140.561 14.6863L140.305 13.7195C139.664 13.8891 139.024 14.0598 138.384 14.2317L138.643 15.1975ZM142.481 14.1823C143.121 14.0156 143.761 13.8502 144.402 13.686L144.153 12.7173C143.511 12.8819 142.87 13.0476 142.229 13.2146L142.481 14.1823ZM146.324 13.1971C146.965 13.0354 147.607 12.875 148.249 12.7158L148.008 11.7452C147.365 11.9047 146.722 12.0655 146.08 12.2275L146.324 13.1971ZM150.175 12.2421C150.818 12.0854 151.461 11.93 152.104 11.7759L151.871 10.8034C151.227 10.9578 150.583 11.1135 149.938 11.2705L150.175 12.2421ZM154.035 11.3176C154.679 11.1661 155.323 11.016 155.967 10.8673L155.742 9.89295C155.097 10.042 154.451 10.1924 153.806 10.3441L154.035 11.3176ZM157.9 10.4253C158.545 10.2791 159.191 10.1344 159.836 9.99105L159.619 9.01483C158.972 9.15847 158.326 9.30352 157.679 9.44997L157.9 10.4253ZM161.775 9.56475C162.422 9.42409 163.068 9.28486 163.715 9.1471L163.506 8.16905C162.858 8.30712 162.21 8.44665 161.562 8.58762L161.775 9.56475ZM165.654 8.73823C166.301 8.60335 166.948 8.46996 167.595 8.33808L167.395 7.35824C166.747 7.49041 166.099 7.6241 165.45 7.75928L165.654 8.73823ZM169.543 7.94553C170.192 7.81622 170.841 7.68844 171.491 7.56224L171.3 6.58062C170.649 6.70712 169.998 6.83518 169.348 6.9648L169.543 7.94553ZM173.437 7.18834C174.086 7.06529 174.735 6.94382 175.384 6.82397L175.202 5.84062C174.552 5.96076 173.902 6.08251 173.251 6.20585L173.437 7.18834ZM177.338 6.46767C177.99 6.35039 178.642 6.23476 179.293 6.1208L179.121 5.13575C178.468 5.24999 177.814 5.3659 177.161 5.48347L177.338 6.46767ZM181.248 5.78399C181.899 5.67342 182.55 5.56454 183.2 5.45739L183.038 4.47068C182.386 4.5781 181.733 4.68726 181.08 4.79811L181.248 5.78399ZM185.158 5.14003C185.813 5.03556 186.468 4.93287 187.122 4.83198L186.969 3.84366C186.313 3.94482 185.657 4.04778 185.001 4.15251L185.158 5.14003ZM189.083 4.53471C189.737 4.43743 190.39 4.34198 191.042 4.24837L190.901 3.2585C190.246 3.35236 189.591 3.44807 188.936 3.54561L189.083 4.53471ZM193.002 3.97264C193.66 3.88191 194.317 3.79308 194.974 3.70618L194.843 2.71482C194.184 2.80197 193.525 2.89104 192.866 2.98202L193.002 3.97264ZM196.943 3.4513C197.598 3.36828 198.254 3.28721 198.908 3.20812L198.788 2.21534C198.132 2.29466 197.475 2.37596 196.817 2.45922L196.943 3.4513ZM200.87 2.9768C201.53 2.90091 202.189 2.82707 202.848 2.75529L202.74 1.76118C202.079 1.83317 201.418 1.90723 200.756 1.98334L200.87 2.9768ZM204.824 2.54605C205.481 2.47839 206.138 2.41283 206.795 2.34939L206.698 1.35403C206.04 1.41767 205.381 1.48344 204.721 1.5513L204.824 2.54605ZM208.761 2.16544C209.422 2.10571 210.082 2.04816 210.741 1.99283L210.658 0.996332C209.996 1.05185 209.334 1.10958 208.671 1.1695L208.761 2.16544ZM212.723 1.833C213.382 1.78197 214.041 1.73319 214.699 1.68669L214.628 0.689177C213.968 0.735838 213.307 0.784783 212.646 0.835984L212.723 1.833ZM216.669 1.55404C217.331 1.51176 217.991 1.47182 218.651 1.43425L218.594 0.435873C217.932 0.473572 217.269 0.513648 216.605 0.556072L216.669 1.55404ZM220.637 1.32815C221.298 1.29519 221.958 1.26466 222.616 1.23658L222.574 0.237486C221.913 0.265672 221.25 0.296315 220.587 0.329389L220.637 1.32815ZM224.589 1.15971C225.251 1.13636 225.912 1.11554 226.571 1.09726L226.544 0.097641C225.882 0.115993 225.218 0.136898 224.554 0.160329L224.589 1.15971ZM228.561 1.04979C229.222 1.03656 229.883 1.02595 230.542 1.01798L230.53 0.0180487C229.868 0.0260546 229.205 0.0367096 228.541 0.0499846L228.561 1.04979ZM232.516 1.002C232.844 1.00066 233.172 0.999997 233.5 1V0C233.171 -3.39746e-06 232.842 0.000666678 232.512 0.00200662L232.516 1.002ZM233.5 1C233.826 1 234.153 1.00023 234.48 1.00069L234.482 0.00068891C234.154 0.000225693 233.826 3.39746e-06 233.5 0V1ZM236.451 1.0065C237.104 1.00948 237.76 1.01357 238.42 1.01894L238.428 0.0189719C237.767 0.0135946 237.11 0.009498 236.455 0.00651222L236.451 1.0065ZM240.386 1.03878C241.039 1.0467 241.695 1.056 242.353 1.06686L242.37 0.0669988C241.71 0.056114 241.052 0.0467867 240.398 0.0388561L240.386 1.03878ZM244.322 1.10396C244.976 1.11785 245.632 1.1334 246.29 1.15076L246.316 0.151106C245.656 0.133696 244.998 0.118107 244.343 0.104183L244.322 1.10396ZM248.254 1.20791C248.908 1.22873 249.563 1.25145 250.221 1.27624L250.258 0.276948C249.599 0.252089 248.942 0.229295 248.286 0.208419L248.254 1.20791ZM252.188 1.35644C252.841 1.3851 253.495 1.41591 254.152 1.44901L254.202 0.450278C253.543 0.417066 252.887 0.386155 252.232 0.357402L252.188 1.35644ZM256.115 1.5547C256.768 1.59213 257.422 1.63194 258.078 1.67427L258.143 0.676345C257.484 0.633855 256.827 0.593898 256.172 0.556336L256.115 1.5547ZM260.041 1.80831C260.693 1.85531 261.346 1.90491 262 1.95725L262.08 0.960437C261.423 0.907887 260.767 0.858086 260.113 0.810902L260.041 1.80831ZM263.959 2.12203C264.611 2.17957 265.264 2.23995 265.918 2.30328L266.015 1.30794C265.358 1.24433 264.702 1.18369 264.047 1.1259L263.959 2.12203ZM267.873 2.50132C268.523 2.57014 269.174 2.64201 269.826 2.71705L269.94 1.72361C269.286 1.64822 268.631 1.57601 267.978 1.50687L267.873 2.50132ZM271.778 2.95119C272.427 3.0322 273.077 3.11647 273.727 3.20412L273.861 2.21309C273.207 2.12499 272.554 2.0403 271.902 1.95889L271.778 2.95119ZM275.672 3.47654C276.32 3.57061 276.968 3.66816 277.616 3.7693L277.77 2.78126C277.118 2.67957 276.467 2.5815 275.816 2.48693L275.672 3.47654ZM279.555 4.08284C280.2 4.19074 280.846 4.30232 281.491 4.41771L281.667 3.43333C281.018 3.31728 280.369 3.20506 279.72 3.09655L279.555 4.08284ZM283.422 4.77481C284.065 4.8975 284.708 5.02409 285.35 5.15469L285.549 4.17475C284.903 4.04333 284.256 3.91598 283.61 3.79255L283.422 4.77481ZM287.271 5.55771C287.911 5.69595 288.55 5.8383 289.188 5.98487L289.412 5.01022C288.769 4.86268 288.126 4.71942 287.483 4.5803L287.271 5.55771ZM291.1 6.43674C291.735 6.59133 292.37 6.75023 293.004 6.91355L293.253 5.94517C292.615 5.78071 291.976 5.62073 291.336 5.4651L291.1 6.43674ZM294.901 7.41635C295.532 7.58826 296.163 7.76468 296.792 7.94576L297.069 6.98472C296.435 6.80233 295.8 6.62463 295.164 6.4515L294.901 7.41635ZM298.674 8.50179C299.299 8.69162 299.924 8.88618 300.548 9.08558L300.852 8.1331C300.224 7.93216 299.595 7.73613 298.964 7.54488L298.674 8.50179ZM302.413 9.69772C303.032 9.90622 303.65 10.1196 304.267 10.3381L304.601 9.39547C303.979 9.17525 303.356 8.96013 302.732 8.75L302.413 9.69772ZM306.111 11.0078C306.724 11.2359 307.335 11.469 307.945 11.7075L308.309 10.7761C307.694 10.5357 307.078 10.3006 306.46 10.0706L306.111 11.0078ZM309.765 12.4367C310.369 12.6846 310.972 12.9379 311.573 13.1966L311.969 12.278C311.362 12.0171 310.754 11.7616 310.145 11.5115L309.765 12.4367ZM313.369 13.9879C313.964 14.2563 314.557 14.5301 315.149 14.8096L315.576 13.9054C314.979 13.6234 314.381 13.3471 313.78 13.0763L313.369 13.9879ZM316.914 15.6632C317.5 15.9528 318.083 16.2481 318.665 16.5492L319.125 15.6611C318.538 15.3572 317.948 15.0591 317.358 14.7668L316.914 15.6632ZM320.397 17.466C320.684 17.6217 320.971 17.7788 321.258 17.9374L321.742 17.0626C321.453 16.9024 321.163 16.7438 320.873 16.5866L320.397 17.466Z" fill="#225295"/>
</svg>
