<svg width="148" height="175" viewBox="0 0 148 175" fill="none" xmlns="http://www.w3.org/2000/svg">
<path d="M18.4079 101.306C18.4079 109.283 20.0186 116.838 23.24 123.971C26.4613 131.104 31.0633 137.355 37.0459 142.724C36.8925 141.957 36.8158 141.266 36.8158 140.653V138.582C36.8158 133.673 37.7362 129.071 39.577 124.776C41.4178 120.481 44.1022 116.569 47.6304 113.041L73.6316 87.5L99.6327 113.041C103.161 116.569 105.845 120.481 107.686 124.776C109.527 129.071 110.447 133.673 110.447 138.582V140.653C110.447 141.266 110.371 141.957 110.217 142.724C116.2 137.355 120.802 131.104 124.023 123.971C127.245 116.838 128.855 109.283 128.855 101.306C128.855 93.636 127.436 86.3879 124.598 79.5616C121.761 72.7353 117.657 66.6377 112.288 61.2687C109.22 63.2629 105.999 64.7586 102.624 65.7557C99.2492 66.7528 95.7978 67.2513 92.2696 67.2513C82.7588 67.2513 74.5136 64.1066 67.534 57.8173C60.5543 51.5279 56.5276 43.7812 55.4538 34.5773C49.4712 39.6395 44.1789 44.8934 39.577 50.3391C34.975 55.7847 31.1017 61.3071 27.957 66.9062C24.8123 72.5052 22.4346 78.2194 20.8239 84.0485C19.2132 89.8777 18.4079 95.6301 18.4079 101.306ZM73.6316 113.271L60.516 126.157C58.8286 127.844 57.5247 129.761 56.6043 131.909C55.6839 134.057 55.2237 136.281 55.2237 138.582C55.2237 143.491 57.0261 147.709 60.631 151.237C64.2359 154.766 68.5694 156.53 73.6316 156.53C78.6937 156.53 83.0273 154.766 86.6322 151.237C90.237 147.709 92.0395 143.491 92.0395 138.582C92.0395 136.128 91.5793 133.865 90.6589 131.794C89.7385 129.723 88.4346 127.844 86.7472 126.157L73.6316 113.271ZM73.6316 0.0625V30.4355C73.6316 35.6511 75.434 40.023 79.0389 43.5512C82.6438 47.0793 87.054 48.8434 92.2696 48.8434C95.0308 48.8434 97.6002 48.2682 99.9779 47.1177C102.356 45.9672 104.465 44.2414 106.306 41.9405L110.447 36.8783C121.799 43.3211 130.773 52.2949 137.369 63.7998C143.965 75.3048 147.263 87.8068 147.263 101.306C147.263 121.861 140.13 139.272 125.864 153.538C111.598 167.804 94.1871 174.938 73.6316 174.938C53.0761 174.938 35.6653 167.804 21.3992 153.538C7.13306 139.272 0 121.861 0 101.306C0 81.5174 6.63451 62.726 19.9035 44.9317C33.1726 27.1374 51.0819 12.181 73.6316 0.0625Z" fill="#CCDDED"/>
</svg>
