<svg width="188" height="188" viewBox="0 0 188 188" fill="none" xmlns="http://www.w3.org/2000/svg">
<path d="M94 0L105.072 13.4473L119.361 3.48577L126.394 19.4215L142.841 13.6846L145.314 30.9269L162.699 29.84L160.428 47.1101L177.461 50.7539L170.615 66.7709L186.034 74.8751L175.12 88.4512L187.781 100.415L173.609 110.543L182.573 125.479L166.194 131.408L170.795 148.208L153.424 149.498L153.322 166.917L136.247 163.473L131.45 180.218L115.937 172.295L106.8 187.124L94 175.31L81.2003 187.124L72.0628 172.295L56.5503 180.218L51.7526 163.473L34.6777 166.917L34.5757 149.498L17.2048 148.208L21.8061 131.408L5.42747 125.479L14.3907 110.543L0.219139 100.415L12.8796 88.4512L1.96609 74.8751L17.3848 66.7709L10.5388 50.7539L27.5722 47.1101L25.3014 29.84L42.6862 30.9269L45.1591 13.6846L61.606 19.4215L68.6391 3.48577L82.9283 13.4473L94 0Z" fill="#FF0000"/>
<path d="M94 14L103.423 25.4445L115.584 16.9666L121.569 30.529L135.567 25.6464L137.671 40.3208L152.467 39.3957L150.534 54.0937L165.031 57.1948L159.204 70.8263L172.327 77.7235L163.039 89.2776L173.814 99.4594L161.753 108.079L169.381 120.79L155.442 125.837L159.358 140.134L144.574 141.233L144.487 156.057L129.955 153.126L125.872 167.377L112.67 160.634L104.893 173.255L94 163.2L83.1067 173.255L75.3301 160.634L62.1279 167.377L58.0448 153.126L43.513 156.057L43.4262 141.233L28.6424 140.134L32.5583 125.837L18.6191 120.79L26.2474 108.079L14.1865 99.4594L24.9613 89.2776L15.6733 77.7235L28.7955 70.8263L22.9692 57.1948L37.4657 54.0937L35.5331 39.3957L50.3287 40.3208L52.4333 25.6464L66.4306 30.529L72.4163 16.9666L84.5773 25.4445L94 14Z" fill="#870000"/>
<path d="M42.35 101.685V96.195H54.14V101.685H42.35ZM74.087 111H67.292V92.415C67.292 91.905 67.292 91.275 67.292 90.525C67.322 89.775 67.352 88.995 67.382 88.185C67.412 87.375 67.442 86.655 67.472 86.025C67.322 86.205 66.992 86.535 66.482 87.015C66.002 87.465 65.552 87.87 65.132 88.23L61.442 91.2L58.157 87.105L68.507 78.87H74.087V111ZM105.329 94.935C105.329 97.515 105.119 99.825 104.699 101.865C104.309 103.905 103.664 105.645 102.764 107.085C101.894 108.495 100.739 109.575 99.2989 110.325C97.8889 111.075 96.1489 111.45 94.0789 111.45C91.4989 111.45 89.3839 110.79 87.7339 109.47C86.0839 108.15 84.8539 106.26 84.0439 103.8C83.2639 101.34 82.8739 98.385 82.8739 94.935C82.8739 91.455 83.2339 88.485 83.9539 86.025C84.6739 83.565 85.8589 81.675 87.5089 80.355C89.1589 79.035 91.3489 78.375 94.0789 78.375C96.6589 78.375 98.7739 79.035 100.424 80.355C102.074 81.645 103.304 83.535 104.114 86.025C104.924 88.485 105.329 91.455 105.329 94.935ZM89.6239 94.935C89.6239 97.365 89.7589 99.405 90.0289 101.055C90.2989 102.675 90.7489 103.905 91.3789 104.745C92.0389 105.555 92.9389 105.96 94.0789 105.96C95.2189 105.96 96.1039 105.555 96.7339 104.745C97.3939 103.935 97.8589 102.72 98.1289 101.1C98.4289 99.45 98.5789 97.395 98.5789 94.935C98.5789 92.475 98.4289 90.435 98.1289 88.815C97.8589 87.165 97.3939 85.935 96.7339 85.125C96.1039 84.285 95.2189 83.865 94.0789 83.865C92.9389 83.865 92.0389 84.285 91.3789 85.125C90.7489 85.935 90.2989 87.165 90.0289 88.815C89.7589 90.435 89.6239 92.475 89.6239 94.935ZM115.961 78.42C118.481 78.42 120.386 79.305 121.676 81.075C122.996 82.815 123.656 85.275 123.656 88.455C123.656 91.635 123.041 94.125 121.811 95.925C120.581 97.695 118.631 98.58 115.961 98.58C114.311 98.58 112.916 98.175 111.776 97.365C110.666 96.555 109.826 95.4 109.256 93.9C108.686 92.37 108.401 90.555 108.401 88.455C108.401 85.275 109.001 82.815 110.201 81.075C111.401 79.305 113.321 78.42 115.961 78.42ZM116.006 83.01C115.286 83.01 114.761 83.46 114.431 84.36C114.101 85.26 113.936 86.64 113.936 88.5C113.936 90.33 114.101 91.71 114.431 92.64C114.761 93.57 115.286 94.035 116.006 94.035C116.726 94.035 117.251 93.57 117.581 92.64C117.941 91.71 118.121 90.33 118.121 88.5C118.121 86.64 117.941 85.26 117.581 84.36C117.251 83.46 116.726 83.01 116.006 83.01ZM138.776 78.87L120.956 111H115.691L133.511 78.87H138.776ZM138.461 91.245C140.141 91.245 141.551 91.65 142.691 92.46C143.831 93.24 144.686 94.38 145.256 95.88C145.856 97.35 146.156 99.15 146.156 101.28C146.156 104.46 145.541 106.95 144.311 108.75C143.081 110.52 141.131 111.405 138.461 111.405C136.811 111.405 135.416 111 134.276 110.19C133.166 109.38 132.326 108.225 131.756 106.725C131.186 105.195 130.901 103.38 130.901 101.28C130.901 98.1 131.501 95.64 132.701 93.9C133.901 92.13 135.821 91.245 138.461 91.245ZM138.506 95.835C137.786 95.835 137.261 96.285 136.931 97.185C136.601 98.085 136.436 99.465 136.436 101.325C136.436 103.155 136.601 104.535 136.931 105.465C137.261 106.395 137.786 106.86 138.506 106.86C139.226 106.86 139.751 106.41 140.081 105.51C140.441 104.58 140.621 103.185 140.621 101.325C140.621 99.465 140.441 98.085 140.081 97.185C139.751 96.285 139.226 95.835 138.506 95.835Z" fill="white"/>
</svg>
